<svg xmlns="http://www.w3.org/2000/svg" width="2326" height="2326" viewBox="600 600 1126 1126"><path fill="#000000" stroke="#000000" d="M1642.5 770q6.4-.4 8.5 3.5v249l-6 7.5-86.5 70-26.5 23.5q-5.3 6.2-5 18l3 7 10.5 10.5 85 67 25.5 23.5 1 2v397l-1 2.5-5.5 1-15.5-14.5-199-216-6-8v-3l14-18 53-57v-1.5q2.7 1.1 2-1.5 21.9-20.6 40-45l8-17 2-11v-10l-2-11-6-15q-6.8-12.1-17.5-20.5-12.1-9.4-29-14l-16-3h-19l-1 1-12 1-12 4-19 14-224 220-18 16-6 1-10-7-78-77-30-29h-1.5q1.1-2.7-1.5-2l-130-128q-8.4-7.1-20-11l-12-3-24-1-25 5-13 6q-13.1 7.9-22.5 19.5l-11 22-2 9v17q3.4 18.6 14 30l98 104 10 13v4Q797.9 1533.9 687.5 1649l-7 3-4.5-3.5-1-3v-395l11.5-12.5 95-76 14.5-13.5q5.3-4.7 4-16l-3-8-10.5-10.5-105.5-85.5-6-8v-244q1-4.5 7.5-3.5l27 21 146 127 293 264 11 7 8 1 15-11 340-308 102-90 18-14z"/></svg>
